<mxfile host="Electron" modified="2023-04-22T15:09:42.000Z" agent="Mozilla/5.0 (X11; Linux x86_64) AppleWebKit/537.36 (KHTML, like Gecko) draw.io/21.1.2 Chrome/106.0.5249.199 Electron/21.4.3 Safari/537.36" etag="ARJm0k48G93RZhYBN9if" version="21.1.2" type="device">
  <diagram name="PÃ¡gina-1" id="LqWW6KVvUVL05yqnat4p">
    <mxGraphModel dx="1434" dy="839" grid="1" gridSize="10" guides="1" tooltips="1" connect="1" arrows="1" fold="1" page="1" pageScale="1" pageWidth="1654" pageHeight="1169" background="none" math="0" shadow="0">
      <root>
        <mxCell id="0" />
        <mxCell id="1" parent="0" />
        <mxCell id="HkXOkrIhmaekvlxuGhO0-1" value="1-way conversion" style="swimlane;whiteSpace=wrap;html=1;fillColor=#d80073;fontColor=#ffffff;strokeColor=#A50040;" vertex="1" parent="1">
          <mxGeometry x="90" y="100" width="540" height="340" as="geometry" />
        </mxCell>
        <mxCell id="HkXOkrIhmaekvlxuGhO0-4" value="Controller" style="shape=umlLifeline;perimeter=lifelinePerimeter;whiteSpace=wrap;html=1;container=1;dropTarget=0;collapsible=0;recursiveResize=0;outlineConnect=0;portConstraint=eastwest;newEdgeStyle={&quot;edgeStyle&quot;:&quot;elbowEdgeStyle&quot;,&quot;elbow&quot;:&quot;vertical&quot;,&quot;curved&quot;:0,&quot;rounded&quot;:0};fillColor=#60a917;fontColor=#ffffff;strokeColor=#2D7600;" vertex="1" parent="HkXOkrIhmaekvlxuGhO0-1">
          <mxGeometry x="30" y="50" width="100" height="280" as="geometry" />
        </mxCell>
        <mxCell id="HkXOkrIhmaekvlxuGhO0-5" value="Service" style="shape=umlLifeline;perimeter=lifelinePerimeter;whiteSpace=wrap;html=1;container=1;dropTarget=0;collapsible=0;recursiveResize=0;outlineConnect=0;portConstraint=eastwest;newEdgeStyle={&quot;edgeStyle&quot;:&quot;elbowEdgeStyle&quot;,&quot;elbow&quot;:&quot;vertical&quot;,&quot;curved&quot;:0,&quot;rounded&quot;:0};fillColor=#1ba1e2;fontColor=#ffffff;strokeColor=#006EAF;" vertex="1" parent="HkXOkrIhmaekvlxuGhO0-1">
          <mxGeometry x="230" y="50" width="100" height="280" as="geometry" />
        </mxCell>
        <mxCell id="HkXOkrIhmaekvlxuGhO0-6" value="Persistence" style="shape=umlLifeline;perimeter=lifelinePerimeter;whiteSpace=wrap;html=1;container=1;dropTarget=0;collapsible=0;recursiveResize=0;outlineConnect=0;portConstraint=eastwest;newEdgeStyle={&quot;edgeStyle&quot;:&quot;elbowEdgeStyle&quot;,&quot;elbow&quot;:&quot;vertical&quot;,&quot;curved&quot;:0,&quot;rounded&quot;:0};fillColor=#fa6800;fontColor=#000000;strokeColor=#C73500;" vertex="1" parent="HkXOkrIhmaekvlxuGhO0-1">
          <mxGeometry x="420" y="50" width="100" height="280" as="geometry" />
        </mxCell>
        <mxCell id="HkXOkrIhmaekvlxuGhO0-9" value="Entity" style="html=1;shape=mxgraph.infographic.ribbonSimple;notch1=20;notch2=20;align=center;verticalAlign=middle;fontSize=14;fontStyle=0;fillColor=#60a917;whiteSpace=wrap;fontColor=#ffffff;strokeColor=#2D7600;" vertex="1" parent="HkXOkrIhmaekvlxuGhO0-1">
          <mxGeometry x="70" y="110" width="220" height="40" as="geometry" />
        </mxCell>
        <mxCell id="HkXOkrIhmaekvlxuGhO0-11" value="persist Entity" style="html=1;shape=mxgraph.infographic.ribbonSimple;notch1=20;notch2=20;align=center;verticalAlign=middle;fontSize=14;fontStyle=0;fillColor=#1ba1e2;whiteSpace=wrap;fontColor=#ffffff;strokeColor=#006EAF;" vertex="1" parent="HkXOkrIhmaekvlxuGhO0-1">
          <mxGeometry x="270" y="110" width="220" height="40" as="geometry" />
        </mxCell>
        <mxCell id="HkXOkrIhmaekvlxuGhO0-12" value="Entity" style="html=1;shape=mxgraph.infographic.ribbonSimple;notch1=20;notch2=20;align=center;verticalAlign=middle;fontSize=14;fontStyle=0;fillColor=#fa6800;whiteSpace=wrap;direction=west;fontColor=#000000;strokeColor=#C73500;" vertex="1" parent="HkXOkrIhmaekvlxuGhO0-1">
          <mxGeometry x="270" y="170" width="210" height="40" as="geometry" />
        </mxCell>
        <mxCell id="HkXOkrIhmaekvlxuGhO0-13" value="Entity -&amp;gt; DTO conversion" style="html=1;shape=mxgraph.infographic.ribbonSimple;notch1=20;notch2=20;align=center;verticalAlign=middle;fontSize=14;fontStyle=0;fillColor=#1ba1e2;whiteSpace=wrap;direction=west;fontColor=#ffffff;strokeColor=#006EAF;" vertex="1" parent="HkXOkrIhmaekvlxuGhO0-1">
          <mxGeometry x="70" y="230" width="220" height="40" as="geometry" />
        </mxCell>
      </root>
    </mxGraphModel>
  </diagram>
</mxfile>
